<svg xmlns="http://www.w3.org/2000/svg" width="3057" height="875" viewBox="0 0 3057 875" version="1.1"><path d="M 2788 140.273 C 2784.365 142.080, 2781.801 147.818, 2782.906 151.671 C 2783.390 153.359, 2790.134 162.687, 2797.893 172.401 C 2812.347 190.497, 2813.397 192.519, 2810.832 197.316 C 2810.189 198.517, 2804.418 206.025, 2798.006 214 C 2776.943 240.201, 2775 242.935, 2775 246.381 C 2775 248.127, 2775.768 250.668, 2776.706 252.027 C 2780.378 257.348, 2814.354 299.629, 2816.662 301.750 C 2819.097 303.986, 2823.983 304.711, 2827.507 303.359 C 2829.106 302.745, 2906.739 206.225, 2908.937 202.118 C 2910.509 199.181, 2910.229 194.777, 2908.293 191.973 C 2907.354 190.613, 2897.721 178.426, 2886.885 164.891 C 2874.329 149.206, 2866.335 140.054, 2864.842 139.654 C 2863.554 139.310, 2846.300 139.028, 2826.500 139.028 C 2799.815 139.029, 2789.853 139.351, 2788 140.273 M 1580.500 634.392 C 1572.044 637.053, 1565.266 642.679, 1561.172 650.437 L 1558.500 655.500 1558.500 683 C 1558.500 714.035, 1558.552 714.304, 1566.134 722.529 C 1568.491 725.087, 1572.688 728.376, 1575.460 729.839 L 1580.500 732.500 1640.750 732.780 L 1701 733.060 1701 703.530 L 1701 674 1670 674 L 1639 674 1639 685 L 1639 696 1656 696 L 1673 696 1673 703.033 L 1673 710.066 1632.917 709.783 L 1592.834 709.500 1589.917 706.234 L 1587 702.968 1587 683.207 C 1587 666.555, 1587.257 663.079, 1588.631 661.117 C 1592.147 656.097, 1593.248 656, 1646.968 656 L 1697 656 1697 644.500 L 1697 633 1640.750 633.067 C 1598.492 633.117, 1583.505 633.447, 1580.500 634.392 M 1785 682.967 L 1785 733 1799 733 L 1813 733 1813 715 L 1813 697 1835.307 697 L 1857.613 697 1872.445 715 L 1887.276 733 1903.812 733 L 1920.349 733 1918.297 730.750 C 1903.211 714.208, 1889.088 697.536, 1889.712 697.006 C 1890.145 696.638, 1892.525 695.780, 1895 695.100 C 1904.320 692.537, 1912.610 685.022, 1916.542 675.571 C 1918.927 669.837, 1918.691 659.355, 1916.042 653.344 C 1913.119 646.713, 1905.955 639.718, 1898.610 636.324 L 1892.500 633.500 1838.750 633.217 L 1785 632.934 1785 682.967 M 2025.205 634.875 C 2015.222 638.359, 2006.926 647.223, 2005.011 656.449 C 2004.282 659.961, 2003.984 670.689, 2004.185 686.220 C 2004.475 708.586, 2004.670 710.867, 2006.652 715.156 C 2009.305 720.895, 2015.584 727.123, 2021.807 730.188 L 2026.500 732.500 2075.500 732.500 L 2124.500 732.500 2129.193 730.188 C 2135.416 727.123, 2141.695 720.895, 2144.348 715.156 C 2146.386 710.747, 2146.500 709.040, 2146.500 683 C 2146.500 656.325, 2146.431 655.360, 2144.200 650.831 C 2141.392 645.130, 2134.455 638.563, 2128.176 635.661 C 2123.622 633.556, 2122.288 633.494, 2077 633.263 C 2033.986 633.044, 2030.103 633.165, 2025.205 634.875 M 2231.206 672.250 L 2231.500 711.500 2234.471 716.864 C 2238.015 723.263, 2244.020 728.440, 2250.955 731.075 C 2255.670 732.866, 2259 733, 2298.973 733 C 2339.534 733, 2342.224 732.888, 2347.292 730.992 C 2353.946 728.502, 2360.161 723.284, 2363.757 717.166 L 2366.500 712.500 2366.793 672.750 L 2367.086 633 2353.043 633 L 2339 633 2339 667.050 C 2339 704.426, 2338.849 705.475, 2333.033 708.483 C 2328.608 710.771, 2269.308 710.728, 2264.872 708.434 C 2259.291 705.548, 2259 703.474, 2259 666.532 L 2259 633 2244.956 633 L 2230.913 633 2231.206 672.250 M 2452 682.967 L 2452 733 2466 733 L 2480 733 2480 717.542 L 2480 702.084 2520.750 701.792 L 2561.500 701.500 2567.478 698.569 C 2584.088 690.427, 2591.931 672.589, 2585.977 656.500 C 2582.993 648.439, 2573.881 639.293, 2565.451 635.897 L 2559.500 633.500 2505.750 633.217 L 2452 632.934 2452 682.967 M 1813 665 L 1813 674 1848.777 674 C 1879.964 674, 1884.848 673.795, 1886.841 672.399 C 1890.151 670.080, 1891.287 666.400, 1889.947 662.339 C 1887.896 656.125, 1887.070 656, 1848.050 656 L 1813 656 1813 665 M 2038.190 658.026 C 2032.577 661.448, 2031.798 664.928, 2032.171 684.906 C 2032.675 711.840, 2029.789 710.227, 2076.732 709.812 L 2111.964 709.500 2115.232 706.233 L 2118.500 702.966 2118.829 685.139 C 2119.202 664.908, 2118.435 661.455, 2112.810 658.026 C 2109.661 656.106, 2107.842 656.007, 2075.500 656.007 C 2043.158 656.007, 2041.339 656.106, 2038.190 658.026 M 2480 667.535 L 2480 679.070 2517.083 678.785 L 2554.166 678.500 2557.083 675.234 C 2562.322 669.369, 2560.422 660.328, 2553.328 657.364 C 2550.783 656.300, 2542.352 656, 2515.032 656 L 2480 656 2480 667.535" stroke="none" fill="#4c844c" fill-rule="evenodd"/><path d="M 2080 179.483 L 2080 219.965 2055.250 220.233 L 2030.500 220.500 2030.500 257 L 2030.500 293.500 2055.250 293.767 L 2080 294.035 2080 392.294 C 2080 453.214, 2080.388 493.649, 2081.022 498.702 C 2086.211 540.083, 2107.225 562.511, 2148.698 570.931 C 2173.509 575.968, 2215.769 576.186, 2239.263 571.399 L 2242.025 570.836 2241.763 535.213 L 2241.500 499.590 2236 500.045 C 2222.504 501.161, 2205.561 500.465, 2200 498.567 C 2189.159 494.866, 2183.834 489.951, 2179.676 479.809 C 2177.504 474.510, 2177.499 474.335, 2177.224 384.250 L 2176.949 294 2209.474 294 L 2242 294 2242 257 L 2242 220 2209.500 220 L 2177 220 2177 179.500 L 2177 139 2128.500 139 L 2080 139 2080 179.483 M 2677.633 190.250 C 2673.458 194.040, 2637.832 239.298, 2636.420 242.604 C 2635.625 244.466, 2635.384 246.790, 2635.818 248.411 C 2636.215 249.897, 2665.749 287.769, 2701.448 332.570 C 2758.547 404.226, 2766.786 414.154, 2769.928 415.090 C 2772.405 415.828, 2774.328 415.837, 2776.202 415.120 C 2779.305 413.932, 2819.665 364.185, 2820.623 360.366 C 2820.950 359.065, 2820.958 356.968, 2820.641 355.706 C 2820.324 354.444, 2800.703 329.132, 2777.039 299.456 C 2737.943 250.430, 2734.011 245.164, 2734.006 241.820 C 2734.001 238.586, 2735.757 235.926, 2748.500 219.863 C 2761.520 203.451, 2763 201.191, 2763 197.716 C 2763 194.772, 2762.301 193.147, 2760.077 190.923 L 2757.154 188 2718.633 188 L 2680.112 188 2677.633 190.250 M 680 210.011 C 603.945 214.519, 548.857 260.395, 530.125 334.824 C 524.618 356.706, 523.524 366.777, 523.534 395.500 C 523.545 424.043, 524.727 434.987, 530.014 455.500 C 534.040 471.122, 537.302 479.724, 544.621 494.021 C 571.321 546.177, 621.036 575.076, 688.500 577.658 C 751.054 580.052, 804.644 558.117, 835.158 517.629 C 845.164 504.352, 854.845 482.059, 857.470 466.250 L 858.176 462 813.740 462 L 769.304 462 765.493 469.750 C 757.690 485.617, 741.784 497.700, 721.500 503.169 C 710.099 506.243, 686.935 506.267, 675.797 503.216 C 641.459 493.810, 620.780 466.282, 618.358 426.750 L 617.699 416 739.350 416 L 861 416 861 394.674 C 861 382.944, 860.520 368.432, 859.934 362.424 C 856.112 323.267, 842.644 289.416, 820.339 262.905 C 789.008 225.665, 738.306 206.556, 680 210.011 M 1318 211.048 C 1279.434 214.544, 1246.556 237.937, 1231.485 272.607 C 1229.691 276.734, 1227.948 280.386, 1227.611 280.722 C 1227.275 281.058, 1227 266.858, 1227 249.167 L 1227 217 1180 217 L 1133 217 1133 393.500 L 1133 570 1181.460 570 L 1229.919 570 1230.261 457.250 C 1230.643 330.790, 1230.116 339.737, 1238.177 323 C 1245.541 307.709, 1259.564 296.436, 1276.053 292.549 C 1284.267 290.613, 1298.677 290.600, 1306.824 292.520 C 1321.853 296.064, 1334.005 305.422, 1340.411 318.385 C 1347.209 332.143, 1346.963 327.056, 1346.983 454.750 L 1347 570 1394 570 L 1441 570 1441 458.588 C 1441 366.864, 1441.249 345.879, 1442.410 339.838 C 1447.166 315.081, 1462.613 298.265, 1486 292.387 C 1495.730 289.941, 1514.139 290.884, 1523.379 294.301 C 1540.065 300.473, 1549.884 311.711, 1555.293 330.831 C 1557.454 338.469, 1557.464 338.964, 1557.767 454.250 L 1558.071 570 1606.575 570 L 1655.078 570 1654.717 440.750 C 1654.319 298.380, 1654.666 306.396, 1648.013 285.757 C 1635.279 246.256, 1604.585 220.035, 1562.171 212.427 C 1550.765 210.381, 1527.235 210.381, 1515.829 212.427 C 1478.015 219.210, 1449.597 240.003, 1433.356 272.770 L 1428.212 283.148 1425.980 276.324 C 1422.687 266.257, 1415.383 252.613, 1408.961 244.531 C 1389.825 220.451, 1355.136 207.682, 1318 211.048 M 333.500 212.033 C 293.774 215.518, 260.562 235.759, 242.220 267.664 L 238.500 274.134 238 245.317 L 237.500 216.500 188.750 216.240 L 140 215.981 140 474.490 L 140 733 189 733 L 238 733 238.005 622.750 L 238.011 512.500 242.178 519.500 C 256.887 544.211, 278.110 560.927, 306 569.770 C 320.964 574.514, 328.545 575.509, 349 575.412 C 363.963 575.342, 369.457 574.909, 377.734 573.147 C 430.801 561.852, 467.089 523.891, 482.489 463.561 C 494.640 415.957, 493.210 355.153, 478.915 311.620 C 462.264 260.910, 429.016 227.340, 384.327 216.116 C 368.979 212.261, 349.103 210.665, 333.500 212.033 M 1062.500 212.101 C 1029.316 215.563, 1002.096 239.380, 991.318 274.383 C 990.367 277.472, 989.231 280, 988.794 280 C 988.357 280, 988 265.825, 988 248.500 L 988 217 941.500 217 L 895 217 895 393.500 L 895 570 943.474 570 L 991.948 570 992.245 461.750 C 992.578 340.568, 992.045 349.517, 999.939 332.500 C 1013.281 303.739, 1044.333 290.465, 1084.209 296.475 C 1089.549 297.280, 1095.511 298.605, 1097.459 299.418 L 1101 300.898 1101 257.988 L 1101 215.077 1097.073 214.020 C 1093.320 213.009, 1075.139 210.934, 1072 211.159 C 1071.175 211.218, 1066.900 211.642, 1062.500 212.101 M 1827.500 214.165 C 1781.685 219.336, 1743.615 238.358, 1721.897 266.928 C 1711.028 281.226, 1702.294 303.615, 1700.510 321.750 L 1699.797 329 1744.287 329 L 1788.777 329 1789.395 325.709 C 1790.626 319.147, 1796.717 308.326, 1802.352 302.691 C 1809.080 295.963, 1821.235 289.669, 1832 287.338 C 1842.328 285.102, 1861.359 285.172, 1870.500 287.479 C 1889.232 292.208, 1901.296 302.429, 1907.115 318.500 C 1908.942 323.547, 1909.361 327.319, 1909.755 342.250 L 1910.223 360 1906.862 360.003 C 1902.473 360.007, 1821.591 364.766, 1812.500 365.556 C 1758.778 370.221, 1719.008 388.717, 1699.406 418.152 C 1684.170 441.033, 1680.068 473.206, 1688.618 502.788 C 1700.054 542.357, 1734.943 570.475, 1781.500 577.644 C 1793.809 579.540, 1818.836 578.946, 1830 576.494 C 1861.326 569.613, 1889.775 551.602, 1904.722 529.188 C 1908.851 522.995, 1908.943 522.929, 1909.554 525.688 C 1913.325 542.697, 1916.401 549.354, 1924.024 557.004 C 1938.885 571.918, 1956.365 577.966, 1984.678 577.992 C 2009.388 578.014, 2029.508 571.142, 2042.886 558.111 C 2051.862 549.369, 2051.992 548.954, 2051.996 529.167 C 2051.998 519.633, 2051.662 512.005, 2051.250 512.215 C 2043.482 516.164, 2037.897 518.368, 2031.410 520.044 C 2018.793 523.304, 2012.720 521.201, 2008.205 512.008 L 2005.500 506.500 2004.960 408.500 L 2004.419 310.500 2001.679 301 C 1998.263 289.157, 1990.660 273.560, 1984.085 264.907 C 1962.998 237.154, 1926.502 219.051, 1881.500 214.022 C 1870.720 212.817, 1838.685 212.902, 1827.500 214.165 M 2415 213.624 C 2364.625 219.577, 2328.375 237.177, 2305.737 266.676 C 2293.561 282.541, 2284 308.029, 2284 324.621 L 2284 329.021 2328.185 328.760 L 2372.370 328.500 2373.528 324 C 2376.718 311.612, 2387.088 299.168, 2399.167 293.233 C 2410.251 287.786, 2419.631 285.810, 2434.500 285.789 C 2454.819 285.760, 2467.893 290.057, 2478.763 300.338 C 2489.920 310.889, 2492.940 319.546, 2493.733 343.250 L 2494.293 360 2490.358 360 C 2483.450 360, 2402.927 364.947, 2391.500 366.074 C 2348.711 370.292, 2314.792 383.787, 2293.972 404.875 C 2280.918 418.096, 2273.067 433.378, 2269.437 452.628 C 2267.197 464.508, 2267.902 487.074, 2270.862 498.242 C 2275.506 515.765, 2283.050 529.680, 2294.500 541.845 C 2311.787 560.212, 2330.982 570.719, 2358.053 576.633 C 2369.970 579.237, 2400.941 579.258, 2412.768 576.670 C 2429.923 572.917, 2447.216 565.681, 2460.351 556.762 C 2469.021 550.874, 2482.132 537.959, 2487.676 529.845 L 2492.423 522.898 2494.635 531.915 C 2497.717 544.481, 2501.908 551.837, 2510.437 559.649 C 2518.971 567.467, 2530.280 573.315, 2541.500 575.715 C 2553.076 578.190, 2581.582 578.166, 2592.500 575.673 C 2608.309 572.062, 2624.444 562.272, 2632.175 551.600 L 2635 547.700 2635 530.020 L 2635 512.341 2629.250 515.172 C 2621.787 518.846, 2607.756 522.366, 2603.659 521.591 C 2598.604 520.636, 2594.254 517.406, 2591.805 512.789 L 2589.530 508.500 2588.751 440.500 C 2588.323 403.100, 2588.240 361.698, 2588.567 348.496 C 2589.393 315.210, 2587.344 301.901, 2578.530 283.294 C 2561.668 247.699, 2527.542 224.793, 2478 215.816 C 2468.839 214.156, 2461.620 213.679, 2442.500 213.471 C 2429.300 213.328, 2416.925 213.397, 2415 213.624 M 686.064 282.089 C 669.141 283.770, 652.998 291.765, 641.393 304.216 C 629.218 317.277, 623.456 330.111, 619.603 352.750 L 619.050 356 693.402 356 L 767.754 356 767.286 351.250 C 766.314 341.404, 762.824 329.240, 758.403 320.292 C 745.147 293.466, 717.661 278.950, 686.064 282.089 M 303.536 290.064 C 288.208 292.422, 276.424 298.509, 265 309.972 C 254.790 320.216, 249.178 329.625, 243.875 345.393 C 238.555 361.212, 236.724 373.308, 236.671 393 C 236.604 417.835, 240.199 436.245, 248.567 453.909 C 259.026 475.989, 274.943 489.980, 296 495.602 C 304.859 497.968, 323.188 497.960, 332 495.588 C 353.119 489.902, 367.941 477.123, 378.497 455.500 C 387.579 436.898, 390.988 419.975, 390.988 393.500 C 390.988 354.473, 381.116 326.434, 360.626 307.267 C 353.482 300.584, 341.453 294.019, 331.948 291.616 C 324.363 289.699, 310.748 288.955, 303.536 290.064 M 1865.500 421.516 C 1846.250 422.769, 1827.715 424.305, 1824.311 424.930 C 1805.040 428.467, 1790.664 437.403, 1784.426 449.722 C 1781.718 455.069, 1781.500 456.321, 1781.500 466.516 C 1781.500 476.922, 1781.680 477.897, 1784.750 484.138 C 1790.102 495.019, 1800.194 502.506, 1815.080 506.640 C 1824.561 509.274, 1845.724 508.999, 1856.500 506.104 C 1877.174 500.549, 1894.488 487.818, 1902.943 471.956 C 1908.272 461.956, 1910 452.871, 1910 434.840 L 1910 419 1905.250 419.119 C 1902.638 419.185, 1884.750 420.264, 1865.500 421.516 M 2447.692 421.603 C 2408.308 424.187, 2399.711 425.595, 2387.538 431.450 C 2362.159 443.656, 2356.192 475.204, 2375.636 494.372 C 2385.169 503.771, 2398.862 508.374, 2417.500 508.447 C 2446.303 508.559, 2470.522 496.732, 2483.913 476.014 C 2491.596 464.127, 2494 453.499, 2494 431.428 L 2494 419 2488.750 419.126 C 2485.863 419.196, 2467.386 420.310, 2447.692 421.603" stroke="none" fill="#044c54" fill-rule="evenodd"/></svg>